<svg xmlns="http://www.w3.org/2000/svg" xmlns:xlink="http://www.w3.org/1999/xlink" width="17.837" height="25.453" viewBox="0 0 17.837 25.453"><defs><style>.a{fill:#fff;}.b{clip-path:url(#a);}</style><clipPath id="a"><rect class="a" width="17.837" height="25.453"/></clipPath></defs><g class="b"><path class="a" d="M5.163,30.188q0-.823,0-1.647c0-2.477-.008-4.954,0-7.43a2.253,2.253,0,0,1,1.645-2.26,2.11,2.11,0,0,1,2.446.909,3.379,3.379,0,0,1,.409,1.513c.051,1.579.019,3.161.019,4.53.758.317,1.386.593,2.025.84a.939.939,0,0,0,.535.036,2.361,2.361,0,0,1,2.247.514.846.846,0,0,0,.62.147,2.071,2.071,0,0,1,2.662,1.985,74.035,74.035,0,0,1-.072,7.555,5.522,5.522,0,0,1-5.052,4.761,16.175,16.175,0,0,1-3.6-.127A5.276,5.276,0,0,1,5.44,39.083Q2.933,35.288.428,31.49a2.206,2.206,0,0,1,.641-3.206,2.164,2.164,0,0,1,3.13.711c.274.406.542.816.812,1.224l.152-.03M6.4,26.758c0,1.852.019,3.705-.019,5.557a1.162,1.162,0,0,1-.417.866c-.4.23-.678-.125-.9-.464C4.394,31.689,3.7,30.674,3.046,29.64a.831.831,0,0,0-.959-.423.952.952,0,0,0-.62,1.539c1.382,2.107,2.9,4.137,4.137,6.325a5.961,5.961,0,0,0,6.431,3.29c.155-.018.312-.015.468-.028a4.465,4.465,0,0,0,4.025-4.286c.016-2.1,0-4.2-.016-6.293,0-.259-.02-.611-.179-.753a1.569,1.569,0,0,0-.91-.339c-.1-.006-.29.407-.33.647a5.7,5.7,0,0,0-.013,1.069c.013.485-.048.958-.66.943-.567-.014-.615-.475-.61-.929.006-.558.027-1.118-.01-1.673a.85.85,0,0,0-.948-.831c-.575,0-.578.422-.562.851s0,.848,0,1.272c.007.47-.01.974-.623.983s-.658-.472-.648-.956c.013-.625.02-1.25,0-1.874-.021-.548-.4-.78-.888-.812-.582-.038-.522.4-.52.782,0,.647,0,1.294,0,1.942,0,.437-.163.765-.647.753s-.624-.347-.618-.782c.008-.558,0-1.116,0-1.674,0-2.388.005-4.776,0-7.164,0-.8-.46-1.258-1.128-1.142s-.818.6-.818,1.191q0,2.745,0,5.49" transform="translate(0 -16.232)"/><path class="a" d="M24.3,1.283a3.5,3.5,0,0,0-3.355,4.626c.028.084.112.176.094.245-.08.308-.1.758-.3.882-.407.244-.731-.012-.92-.46a4.79,4.79,0,1,1,9-.3,4.109,4.109,0,0,1-.172.435c-.184.392-.543.555-.871.33a1.088,1.088,0,0,1-.313-.818,12.377,12.377,0,0,0,.154-2.281A3.282,3.282,0,0,0,24.3,1.283" transform="translate(-16.845 0)"/></g></svg>